<svg id="Layer_1" data-name="Layer 1" xmlns="http://www.w3.org/2000/svg" viewBox="0 0 3885 2971.36"><defs><style>.cls-1{fill:#9d6627;}</style></defs><title>logo-toit-texte</title><path class="cls-1" d="M1000.36,1751.93V1421L2108,1120.4v77.45h103.24V1120.4L3318.86,1421v330.93H3546V1282.44a112.57,112.57,0,0,0-50.12-93.53L2223.06,337.77a114.27,114.27,0,0,0-126.88,0L823.36,1188.91a112.56,112.56,0,0,0-50.14,93.53v469.49Zm2248.74-456.14-893.67-242.54,377.69-102.5Zm-1037.85-694,408.84,273.36-408.84,111Zm-51.62-176.36a38.44,38.44,0,1,1-38.72,38.43A38.57,38.57,0,0,1,2159.62,425.43ZM2108,601.79V986.11l-408.82-111Zm-521.87,349,377.68,102.5-893.67,242.54Z" transform="translate(-220 -318.54)"/><path d="M1746.79,2084.39h-27.5v125.33h27.5c18.51,0,28.56-7.93,28.56-34.9v-55.53C1775.35,2092.32,1765.3,2084.39,1746.79,2084.39Z" transform="translate(-220 -318.54)"/><path d="M4101.79,1840.25H2537.15s0-2.91,0-3.43c0-200.08-168.38-363.17-376.18-363.17s-376.22,163.56-376.22,363.64c0,.53,0,3,0,3H220v.17l1,626.67.13,77,80.89,73.64,80.87-73.64,80.81,73.64,80.82-73.64,80.87,73.64,80.78-73.64,80.85,73.64,80.79-73.64,80.82,73.64,80.81-73.64,80.82,73.64,80.82-73.64,80.84,73.64,80.84-73.64,80.79,73.64,80.87-73.64,80.78,73.64,80.83-73.64,80.8,73.64,80.85-73.64,80.82,73.64,80.88-73.64,80.76,73.64,80.83-73.64,80.83,73.64,80.8-73.64,80.78,73.64,80.87-73.64,80.83,73.64,80.78-73.64,80.89,73.64,80.77-73.64,80.88,73.64,80.76-73.64,80.84,73.64,80.83-73.64,80.76,73.64,80.86-73.64,80.86,73.64,80.76-73.64,80.85,73.64,80.8-73.64,80.82,73.64,80.81-73.64,80.85,73.64,80.82-73.64,80.83,73.64,80.79-73.64.2-127.14h.93l3.21-576.7ZM760.4,2156.31h-55v-39.66c0-27-11.64-36.49-30.14-36.49s-30.14,9.52-30.14,36.49v199.9c0,27,11.64,36,30.14,36s30.14-9,30.14-36v-52.88h55v49.18c0,59.76-29.61,93.07-86.73,93.07S587,2372.6,587,2312.84V2120.35c0-59.76,29.61-93.07,86.73-93.07s86.73,33.31,86.73,93.07Zm271.85,245.38H973V2243h-66.1v158.65H848.75V2031.5h58.17v158.65H973V2031.5h59.23Zm224.78,0-10-67.16H1175.6l-10,67.16h-53.42l59.23-370.18h85.15l59.23,370.18Zm260.21,0c-.53-2.64-1.59-4.76-2.11-6.87-1.59-4.23-2.64-10-2.64-20.1a185,185,0,0,1-.54-18.51V2298c0-34.38-11.1-47.07-38.07-47.07h-20.1v150.72h-58.17V2031.5h87.78c60.82,0,86.2,28,86.2,85.14v29.09c0,38.07-12.69,62.93-38.07,75.09,29.61,12.17,38.61,40.19,38.61,78.79v57.12c0,18.51.53,30.67,6.34,44.95Zm316.27-230.57c0,59.75-28,91.49-86.73,91.49h-27.5v139.08h-58.17V2031.5h85.66c58.7,0,86.73,31.73,86.73,91.49Zm126.13-502.27h36.64v199.84h60.28V1902h-96.92Zm112.41,415.54H1971.58v103.12h79.85v52.88h-79.85v108.41h100.47v52.88H1913.41V2031.5h158.65Zm33.82-415.54h99.92v33.31h-63.28v64.95h50.3v33.31h-50.3v68.28h63.28V1902h-99.92ZM2345,2401.69H2285.2l-72.45-268.12v268.12H2160.4V2031.5h73l59.76,221.58V2031.5H2345Zm-34.22-497c-36,0-54.62-21-54.62-58.62v-14.32h34.64v16.65c0,17,7.33,22.65,19,22.65s19-5.66,19-22.65c0-16-8-27.64-18.65-38.63-5.33-5.33-11-10.66-17-16.32-12.32-10.66-23.65-23.32-30.64-39.64-3.66-8.33-5.33-18-5.33-29,0-37.64,18-58.62,54-58.62s54,21,54,58.62v7.32h-34.64v-9.66c0-17-6.66-23-18.32-23s-18.32,6-18.32,23c0,16,8,27.64,18.65,38.3a202.92,202.92,0,0,0,17.32,16.32c12,11,23.31,23.65,30.31,40,3.66,8.33,5.33,18,5.33,29C2365.36,1883.67,2346.71,1904.66,2310.73,1904.66Zm291.8,179.73h-60.82v317.3h-58.18v-317.3h-60.81V2031.5h179.8ZM2739,2401.69h-58.18V2031.5H2739Zm172.93,4.23c-57.11,0-86.73-33.31-86.73-93.07V2290.1h55v26.44c0,27,11.64,36,30.15,36s30.14-9,30.14-36c0-25.38-12.69-43.89-29.61-61.34-8.46-8.46-17.45-16.92-27-25.91-19.57-16.92-37.55-37-48.65-62.93-5.81-13.22-8.46-28.56-8.46-46,0-59.76,28.56-93.07,85.67-93.07s85.66,33.31,85.66,93.07V2132h-55v-15.34c0-27-10.57-36.49-29.08-36.49s-29.09,9.52-29.09,36.49c0,25.38,12.7,43.89,29.62,60.82a322.91,322.91,0,0,0,27.5,25.91c19,17.45,37,37.55,48.13,63.46,5.81,13.22,8.46,28.55,8.46,46C2998.66,2372.6,2969,2405.92,2911.93,2405.92Zm335.85-321.53H3187v317.3h-58.18v-317.3H3068V2031.5h179.81Zm236.93,0H3384.24v103.12h79.85v52.88h-79.85v108.41h100.47v52.88H3326.07V2031.5h158.64Zm166.6,321.53c-57.11,0-86.73-33.31-86.73-93.07V2290.1h55v26.44c0,27,11.64,36,30.14,36s30.14-9,30.14-36c0-25.38-12.69-43.89-29.61-61.34-8.46-8.46-17.45-16.92-27-25.91-19.57-16.92-37.55-37-48.65-62.93-5.81-13.22-8.46-28.56-8.46-46,0-59.76,28.56-93.07,85.67-93.07s85.66,33.31,85.66,93.07V2132h-55v-15.34c0-27-10.57-36.49-29.08-36.49s-29.09,9.52-29.09,36.49c0,25.38,12.7,43.89,29.62,60.82a322.88,322.88,0,0,0,27.5,25.91c19,17.45,37,37.55,48.13,63.46,5.81,13.22,8.46,28.55,8.46,46C3738,2372.6,3708.43,2405.92,3651.31,2405.92Z" transform="translate(-220 -318.54)"/><polygon points="963 1965.74 1019.05 1965.74 991.03 1778.54 963 1965.74"/><path d="M1481.82,2084.39h-28v113.7h22.74c21.68,0,34.91-9.52,34.91-39.13v-36.49C1511.44,2095.49,1502.45,2084.39,1481.82,2084.39Z" transform="translate(-220 -318.54)"/><path d="M901.66,3184.18v36.41c0,44.26-21.93,68.92-64.22,68.92s-64.22-24.67-64.22-68.92V3078.06c0-44.25,21.93-68.92,64.22-68.92s64.22,24.68,64.22,68.92v26.63H860.92v-29.37c0-20-8.62-27-22.31-27s-22.33,7-22.33,27v148c0,20,8.62,26.62,22.33,26.62s22.31-6.65,22.31-26.62v-39.16Z" transform="translate(-220 -318.54)"/><path d="M951.78,3078.06c0-44.25,23.1-68.92,65.39-68.92s65.39,24.68,65.39,68.92v142.53c0,44.26-23.1,68.92-65.39,68.92s-65.39-24.67-65.39-68.92Zm43.06,145.28c0,20,8.62,27,22.33,27s22.31-7,22.31-27v-148c0-20-8.62-27-22.31-27s-22.33,7-22.33,27Z" transform="translate(-220 -318.54)"/><path d="M1176.16,3087.85v198.53h-38.78v-274.1h54l44.23,164.07V3012.27h38.39v274.1H1229.8Z" transform="translate(-220 -318.54)"/><path d="M1390.36,3009.14c42.3,0,63.43,24.68,63.43,68.92v8.62h-40.71v-11.36c0-20-7.85-27-21.54-27s-21.54,7-21.54,27c0,18.79,9.41,32.49,21.93,45a239.31,239.31,0,0,0,20.37,19.2c14.1,12.91,27.41,27.8,35.64,47,4.31,9.79,6.25,21.15,6.25,34.06,0,44.26-21.93,68.92-64.22,68.92s-64.2-24.67-64.2-68.92v-16.83h40.71v19.58c0,20,8.62,26.62,22.31,26.62s22.33-6.65,22.33-26.62c0-18.8-9.41-32.51-21.93-45.43-6.27-6.26-12.93-12.53-20-19.18-14.48-12.53-27.79-27.41-36-46.6-4.31-9.79-6.25-21.13-6.25-34.06C1326.93,3033.81,1348.07,3009.14,1390.36,3009.14Z" transform="translate(-220 -318.54)"/><path d="M1493.74,3012.27h133.13v39.16h-45v234.94h-43.06V3051.43h-45Z" transform="translate(-220 -318.54)"/><path d="M1763.15,3286.38c-.38-2-1.17-3.52-1.56-5.09-1.17-3.14-2-7.44-2-14.88-.38-3.53-.38-8.23-.38-13.72v-43.07c0-25.44-8.23-34.85-28.2-34.85h-14.89v111.6H1673.1v-274.1h65c45,0,63.84,20.75,63.84,63v21.53c0,28.2-9.41,46.6-28.2,55.6,21.93,9,28.58,29.76,28.58,58.36v42.28c0,13.7.41,22.72,4.72,33.28Zm-47-234.94v84.2H1733c16,0,25.83-7,25.83-29v-27c0-20-6.65-28.2-21.93-28.2Z" transform="translate(-220 -318.54)"/><path d="M1899,3012.27v211.45c0,20,8.62,26.63,22.31,26.63s22.33-6.65,22.33-26.63V3012.27h40.71V3221c0,44.25-21.93,68.92-64.22,68.92s-64.22-24.68-64.22-68.92V3012.27Z" transform="translate(-220 -318.54)"/><path d="M2166.09,3184.18v36.41c0,44.26-21.93,68.92-64.22,68.92s-64.22-24.67-64.22-68.92V3078.06c0-44.25,22-68.92,64.22-68.92s64.22,24.68,64.22,68.92v26.63h-40.71v-29.37c0-20-8.62-27-22.33-27s-22.31,7-22.31,27v148c0,20,8.62,26.62,22.31,26.62s22.33-6.65,22.33-26.62v-39.16Z" transform="translate(-220 -318.54)"/><path d="M2207.21,3012.27h133.13v39.16h-45v234.94h-43.09V3051.43h-45Z" transform="translate(-220 -318.54)"/><path d="M2386.56,3012.27h43.06v274.1h-43.06Z" transform="translate(-220 -318.54)"/><path d="M2484.85,3078.06c0-44.25,23.1-68.92,65.39-68.92s65.39,24.68,65.39,68.92v142.53c0,44.26-23.1,68.92-65.39,68.92s-65.39-24.67-65.39-68.92Zm43.06,145.28c0,20,8.62,27,22.33,27s22.31-7,22.31-27v-148c0-20-8.62-27-22.31-27s-22.33,7-22.33,27Z" transform="translate(-220 -318.54)"/><path d="M2709.22,3087.85v198.53h-38.78v-274.1h54l44.23,164.07V3012.27h38.39v274.1h-44.26Z" transform="translate(-220 -318.54)"/><path d="M3018.57,3012.27c45,0,63.84,20.75,63.84,63v9.79c0,28.2-8.62,46.21-27.81,55.21,23.51,9,32.12,29.37,32.12,58.74v22.32c0,42.3-21.93,65-65.39,65h-67.74v-274.1Zm-21.93,39.16v72.44h16.85c16,0,25.83-7,25.83-29v-15.27c0-20-6.65-28.2-21.93-28.2Zm0,111.6v84.18h24.68c14.48,0,22.31-6.65,22.31-27v-23.89c0-25.46-7.83-33.28-27.79-33.28Z" transform="translate(-220 -318.54)"/><path d="M3136.43,3078.06c0-44.25,23.12-68.92,65.39-68.92s65.39,24.68,65.39,68.92v142.53c0,44.26-23.1,68.92-65.39,68.92s-65.39-24.67-65.39-68.92Zm43.09,145.28c0,20,8.62,27,22.31,27s22.33-7,22.33-27v-148c0-20-8.62-27-22.33-27s-22.31,7-22.31,27Z" transform="translate(-220 -318.54)"/><path d="M3322.47,3012.27h43.06v274.1h-43.06Z" transform="translate(-220 -318.54)"/><path d="M3482.22,3009.14c42.3,0,63.43,24.68,63.43,68.92v8.62h-40.71v-11.36c0-20-7.85-27-21.54-27s-21.54,7-21.54,27c0,18.79,9.41,32.49,21.93,45a239.31,239.31,0,0,0,20.37,19.2c14.1,12.91,27.41,27.8,35.64,47,4.31,9.79,6.25,21.15,6.25,34.06,0,44.26-21.93,68.92-64.22,68.92s-64.2-24.67-64.2-68.92v-16.83h40.71v19.58c0,20,8.62,26.62,22.31,26.62s22.33-6.65,22.33-26.62c0-18.8-9.41-32.51-21.93-45.43-6.27-6.26-12.93-12.53-20-19.18-14.48-12.53-27.79-27.41-36-46.6-4.31-9.79-6.25-21.13-6.25-34.06C3418.79,3033.81,3439.92,3009.14,3482.22,3009.14Z" transform="translate(-220 -318.54)"/></svg>